# xmcd
#
# Track frame offsets: 
#        150
#        22520
#        43662
#        62800
#        88472
#        105445
#        128500
#        151917
#        168725
#        188125
#
# Disc length: 2816 seconds
#
# Revision: 3
# Processed by: cddbd v1.5.2PL0 Copyright (c) Steve Scherf et al.
# Submitted via: ExactAudioCopy v1.3
#
DISCID=770afe0a
DTITLE=周傳雄 - 二分之一的愛情
DYEAR=1995
DGENRE=Pop
TTITLE0=二分之一的愛情
TTITLE1=錯在我
TTITLE2=第七十七次離開你
TTITLE3=支離破碎的思念
TTITLE4=可以想想辦法嗎
TTITLE5=情人變成朋友
TTITLE6=怎麼我會不知道
TTITLE7=愛無邊 情無限
TTITLE8=委曲
TTITLE9=女人的吻與愛
EXTD=
EXTT0=
EXTT1=
EXTT2=
EXTT3=
EXTT4=
EXTT5=
EXTT6=
EXTT7=
EXTT8=
EXTT9=
PLAYORDER=
